<mxfile host="app.diagrams.net" agent="Mozilla/5.0 (Windows NT 10.0; Win64; x64) AppleWebKit/537.36 (KHTML, like Gecko) Chrome/134.0.0.0 Safari/537.36" version="26.1.1" pages="3">
  <diagram id="nu12YqP2f_sknupnljtW" name="Class Diagram">
    <mxGraphModel dx="3043" dy="1498" grid="1" gridSize="10" guides="1" tooltips="1" connect="1" arrows="1" fold="1" page="1" pageScale="1" pageWidth="850" pageHeight="1100" math="0" shadow="0">
      <root>
        <mxCell id="0" />
        <mxCell id="1" parent="0" />
        <mxCell id="KFKSji-0zao5er019L_L-1" value="Employee" style="swimlane;fontStyle=1;align=center;verticalAlign=top;childLayout=stackLayout;horizontal=1;startSize=26;horizontalStack=0;resizeParent=1;resizeParentMax=0;resizeLast=0;collapsible=1;marginBottom=0;whiteSpace=wrap;html=1;fillColor=none;" parent="1" vertex="1">
          <mxGeometry x="830" y="130" width="150" height="100" as="geometry" />
        </mxCell>
        <mxCell id="KFKSji-0zao5er019L_L-2" value="- idEmployee: int&lt;div&gt;- name: String&lt;/div&gt;" style="text;strokeColor=none;fillColor=none;align=left;verticalAlign=top;spacingLeft=4;spacingRight=4;overflow=hidden;rotatable=0;points=[[0,0.5],[1,0.5]];portConstraint=eastwest;whiteSpace=wrap;html=1;" parent="KFKSji-0zao5er019L_L-1" vertex="1">
          <mxGeometry y="26" width="150" height="44" as="geometry" />
        </mxCell>
        <mxCell id="KFKSji-0zao5er019L_L-3" value="" style="line;strokeWidth=1;fillColor=none;align=left;verticalAlign=middle;spacingTop=-1;spacingLeft=3;spacingRight=3;rotatable=0;labelPosition=right;points=[];portConstraint=eastwest;strokeColor=inherit;" parent="KFKSji-0zao5er019L_L-1" vertex="1">
          <mxGeometry y="70" width="150" height="8" as="geometry" />
        </mxCell>
        <mxCell id="KFKSji-0zao5er019L_L-4" value="..." style="text;strokeColor=none;fillColor=none;align=left;verticalAlign=top;spacingLeft=4;spacingRight=4;overflow=hidden;rotatable=0;points=[[0,0.5],[1,0.5]];portConstraint=eastwest;whiteSpace=wrap;html=1;" parent="KFKSji-0zao5er019L_L-1" vertex="1">
          <mxGeometry y="78" width="150" height="22" as="geometry" />
        </mxCell>
        <mxCell id="KFKSji-0zao5er019L_L-5" value="TasksManagement" style="swimlane;fontStyle=1;align=center;verticalAlign=top;childLayout=stackLayout;horizontal=1;startSize=26;horizontalStack=0;resizeParent=1;resizeParentMax=0;resizeLast=0;collapsible=1;marginBottom=0;whiteSpace=wrap;html=1;fillColor=none;" parent="1" vertex="1">
          <mxGeometry x="690" y="290" width="430" height="180" as="geometry" />
        </mxCell>
        <mxCell id="KFKSji-0zao5er019L_L-6" value="- map: Map&amp;lt;Employee, List&amp;lt;Task&amp;gt;&amp;gt;" style="text;strokeColor=none;fillColor=none;align=left;verticalAlign=top;spacingLeft=4;spacingRight=4;overflow=hidden;rotatable=0;points=[[0,0.5],[1,0.5]];portConstraint=eastwest;whiteSpace=wrap;html=1;" parent="KFKSji-0zao5er019L_L-5" vertex="1">
          <mxGeometry y="26" width="430" height="34" as="geometry" />
        </mxCell>
        <mxCell id="KFKSji-0zao5er019L_L-7" value="" style="line;strokeWidth=1;fillColor=none;align=left;verticalAlign=middle;spacingTop=-1;spacingLeft=3;spacingRight=3;rotatable=0;labelPosition=right;points=[];portConstraint=eastwest;strokeColor=inherit;" parent="KFKSji-0zao5er019L_L-5" vertex="1">
          <mxGeometry y="60" width="430" height="8" as="geometry" />
        </mxCell>
        <mxCell id="KFKSji-0zao5er019L_L-8" value="&lt;div&gt;+ addEmployee(employee: Employee): boolean&lt;/div&gt;+ assignTaskToEmplyee(idEmployee: int, task: Task): void&lt;div&gt;+ calculateEmployeeWorkDuration(idEmployee: int): int&lt;/div&gt;&lt;div&gt;+ calculateCompletedTaskDuration(task: Task, parentCompleted: boolean): int&lt;/div&gt;&lt;div&gt;+ modifyTaskStatus(idEmployee: int, idTask: int): void&lt;/div&gt;&lt;div&gt;+ areAllSubTasksCompleted(complexTask: ComplexTask): boolean&lt;/div&gt;&lt;div&gt;+ getEmployeeById(idEmployee: int): Employee&lt;/div&gt;" style="text;strokeColor=none;fillColor=none;align=left;verticalAlign=top;spacingLeft=4;spacingRight=4;overflow=hidden;rotatable=0;points=[[0,0.5],[1,0.5]];portConstraint=eastwest;whiteSpace=wrap;html=1;" parent="KFKSji-0zao5er019L_L-5" vertex="1">
          <mxGeometry y="68" width="430" height="112" as="geometry" />
        </mxCell>
        <mxCell id="KFKSji-0zao5er019L_L-9" value="" style="endArrow=diamondThin;endFill=0;endSize=24;html=1;rounded=0;exitX=0.493;exitY=1.123;exitDx=0;exitDy=0;exitPerimeter=0;entryX=0.5;entryY=0;entryDx=0;entryDy=0;" parent="1" source="KFKSji-0zao5er019L_L-4" target="KFKSji-0zao5er019L_L-5" edge="1">
          <mxGeometry width="160" relative="1" as="geometry">
            <mxPoint x="640" y="360" as="sourcePoint" />
            <mxPoint x="800" y="360" as="targetPoint" />
          </mxGeometry>
        </mxCell>
        <mxCell id="KFKSji-0zao5er019L_L-11" value="&lt;p style=&quot;margin:0px;margin-top:4px;text-align:center;&quot;&gt;&lt;b&gt;Task&lt;/b&gt;&lt;/p&gt;&lt;hr size=&quot;1&quot; style=&quot;border-style:solid;&quot;&gt;&lt;p style=&quot;margin:0px;margin-left:4px;&quot;&gt;&amp;nbsp;- idTask: int&lt;/p&gt;&lt;div&gt;&amp;nbsp; - statusTask: String&lt;/div&gt;&lt;hr size=&quot;1&quot; style=&quot;border-style:solid;&quot;&gt;&lt;p style=&quot;margin:0px;margin-left:4px;&quot;&gt;+ estimateDuration(): int&lt;/p&gt;" style="verticalAlign=top;align=left;overflow=fill;html=1;whiteSpace=wrap;" parent="1" vertex="1">
          <mxGeometry x="1260" y="370" width="160" height="90" as="geometry" />
        </mxCell>
        <mxCell id="KFKSji-0zao5er019L_L-12" value="" style="endArrow=diamondThin;endFill=0;endSize=24;html=1;rounded=0;entryX=1;entryY=0.5;entryDx=0;entryDy=0;exitX=0;exitY=0.5;exitDx=0;exitDy=0;" parent="1" source="KFKSji-0zao5er019L_L-11" target="KFKSji-0zao5er019L_L-8" edge="1">
          <mxGeometry width="160" relative="1" as="geometry">
            <mxPoint x="920" y="370" as="sourcePoint" />
            <mxPoint x="1080" y="370" as="targetPoint" />
          </mxGeometry>
        </mxCell>
        <mxCell id="KFKSji-0zao5er019L_L-13" value="&amp;lt;&amp;lt;abstract&amp;gt;&amp;gt;" style="text;align=center;fontStyle=1;verticalAlign=middle;spacingLeft=3;spacingRight=3;strokeColor=none;rotatable=0;points=[[0,0.5],[1,0.5]];portConstraint=eastwest;html=1;" parent="1" vertex="1">
          <mxGeometry x="1300" y="340" width="80" height="26" as="geometry" />
        </mxCell>
        <mxCell id="KFKSji-0zao5er019L_L-14" value="&lt;p style=&quot;margin:0px;margin-top:4px;text-align:center;&quot;&gt;&lt;b&gt;SimpleTask&lt;/b&gt;&lt;/p&gt;&lt;hr size=&quot;1&quot; style=&quot;border-style:solid;&quot;&gt;&lt;p style=&quot;margin:0px;margin-left:4px;&quot;&gt;- startHour: int&lt;/p&gt;&lt;p style=&quot;margin:0px;margin-left:4px;&quot;&gt;- endHour: int&lt;/p&gt;&lt;hr size=&quot;1&quot; style=&quot;border-style:solid;&quot;&gt;&lt;p style=&quot;margin:0px;margin-left:4px;&quot;&gt;+ estimateDuration(): int&lt;/p&gt;" style="verticalAlign=top;align=left;overflow=fill;html=1;whiteSpace=wrap;" parent="1" vertex="1">
          <mxGeometry x="1080" y="610" width="160" height="90" as="geometry" />
        </mxCell>
        <mxCell id="KFKSji-0zao5er019L_L-15" value="&lt;p style=&quot;margin:0px;margin-top:4px;text-align:center;&quot;&gt;&lt;b&gt;ComplexTask&lt;/b&gt;&lt;/p&gt;&lt;hr size=&quot;1&quot; style=&quot;border-style:solid;&quot;&gt;&lt;p style=&quot;margin:0px;margin-left:4px;&quot;&gt;- complexTasks:&amp;nbsp; ArrayList&amp;lt;Task&amp;gt;&lt;/p&gt;&lt;hr size=&quot;1&quot; style=&quot;border-style:solid;&quot;&gt;&lt;p style=&quot;margin:0px;margin-left:4px;&quot;&gt;+ addTask(task: Task): void&lt;/p&gt;&lt;p style=&quot;margin:0px;margin-left:4px;&quot;&gt;+ deleteTask(task: Task): void&lt;/p&gt;&lt;p style=&quot;margin:0px;margin-left:4px;&quot;&gt;+ estimateDuration(): int&amp;nbsp;&lt;/p&gt;" style="verticalAlign=top;align=left;overflow=fill;html=1;whiteSpace=wrap;" parent="1" vertex="1">
          <mxGeometry x="1360" y="610" width="190" height="110" as="geometry" />
        </mxCell>
        <mxCell id="KFKSji-0zao5er019L_L-16" value="" style="endArrow=diamondThin;endFill=0;endSize=24;html=1;rounded=0;exitX=1;exitY=0.5;exitDx=0;exitDy=0;entryX=1;entryY=0.5;entryDx=0;entryDy=0;" parent="1" source="KFKSji-0zao5er019L_L-11" target="KFKSji-0zao5er019L_L-15" edge="1">
          <mxGeometry width="160" relative="1" as="geometry">
            <mxPoint x="880" y="570" as="sourcePoint" />
            <mxPoint x="1210" y="690" as="targetPoint" />
            <Array as="points">
              <mxPoint x="1620" y="415" />
              <mxPoint x="1620" y="665" />
            </Array>
          </mxGeometry>
        </mxCell>
        <mxCell id="KFKSji-0zao5er019L_L-17" value="Extends" style="endArrow=block;endSize=16;endFill=0;html=1;rounded=0;entryX=0.25;entryY=1;entryDx=0;entryDy=0;exitX=0.5;exitY=0;exitDx=0;exitDy=0;" parent="1" source="KFKSji-0zao5er019L_L-14" target="KFKSji-0zao5er019L_L-11" edge="1">
          <mxGeometry width="160" relative="1" as="geometry">
            <mxPoint x="880" y="570" as="sourcePoint" />
            <mxPoint x="1040" y="570" as="targetPoint" />
          </mxGeometry>
        </mxCell>
        <mxCell id="KFKSji-0zao5er019L_L-18" value="Extends" style="endArrow=block;endSize=16;endFill=0;html=1;rounded=0;exitX=0.5;exitY=0;exitDx=0;exitDy=0;entryX=0.75;entryY=1;entryDx=0;entryDy=0;" parent="1" source="KFKSji-0zao5er019L_L-15" target="KFKSji-0zao5er019L_L-11" edge="1">
          <mxGeometry width="160" relative="1" as="geometry">
            <mxPoint x="880" y="570" as="sourcePoint" />
            <mxPoint x="1040" y="570" as="targetPoint" />
          </mxGeometry>
        </mxCell>
        <mxCell id="0jqMITCuuIhLgwIsnsDD-2" value="Utility" style="swimlane;fontStyle=1;align=center;verticalAlign=top;childLayout=stackLayout;horizontal=1;startSize=26;horizontalStack=0;resizeParent=1;resizeParentMax=0;resizeLast=0;collapsible=1;marginBottom=0;whiteSpace=wrap;html=1;fillColor=none;" parent="1" vertex="1">
          <mxGeometry x="10" y="290" width="560" height="180" as="geometry" />
        </mxCell>
        <mxCell id="0jqMITCuuIhLgwIsnsDD-3" value="..." style="text;strokeColor=none;fillColor=none;align=left;verticalAlign=top;spacingLeft=4;spacingRight=4;overflow=hidden;rotatable=0;points=[[0,0.5],[1,0.5]];portConstraint=eastwest;whiteSpace=wrap;html=1;" parent="0jqMITCuuIhLgwIsnsDD-2" vertex="1">
          <mxGeometry y="26" width="560" height="34" as="geometry" />
        </mxCell>
        <mxCell id="0jqMITCuuIhLgwIsnsDD-4" value="" style="line;strokeWidth=1;fillColor=none;align=left;verticalAlign=middle;spacingTop=-1;spacingLeft=3;spacingRight=3;rotatable=0;labelPosition=right;points=[];portConstraint=eastwest;strokeColor=inherit;" parent="0jqMITCuuIhLgwIsnsDD-2" vertex="1">
          <mxGeometry y="60" width="560" height="8" as="geometry" />
        </mxCell>
        <mxCell id="0jqMITCuuIhLgwIsnsDD-5" value="+&amp;nbsp;getEmployeesWithMoreThen40Hour(tasksManagement: TasksManagement): List&amp;lt;Employee&amp;gt;&lt;div&gt;+&amp;nbsp;getTaskCompletionStats(tasksManagement: TasksManagement):&amp;nbsp;Map&amp;lt;String, Map&amp;lt;String, Integer&amp;gt;&amp;gt;&lt;/div&gt;" style="text;strokeColor=none;fillColor=none;align=left;verticalAlign=top;spacingLeft=4;spacingRight=4;overflow=hidden;rotatable=0;points=[[0,0.5],[1,0.5]];portConstraint=eastwest;whiteSpace=wrap;html=1;" parent="0jqMITCuuIhLgwIsnsDD-2" vertex="1">
          <mxGeometry y="68" width="560" height="112" as="geometry" />
        </mxCell>
        <mxCell id="0jqMITCuuIhLgwIsnsDD-7" value="GUI" style="swimlane;fontStyle=1;align=center;verticalAlign=top;childLayout=stackLayout;horizontal=1;startSize=26;horizontalStack=0;resizeParent=1;resizeParentMax=0;resizeLast=0;collapsible=1;marginBottom=0;whiteSpace=wrap;html=1;fillColor=none;" parent="1" vertex="1">
          <mxGeometry x="280" y="550" width="570" height="800" as="geometry" />
        </mxCell>
        <mxCell id="0jqMITCuuIhLgwIsnsDD-8" value="- mainPanel: JPanel&lt;div&gt;- inputPanel: JPanel&lt;/div&gt;&lt;div&gt;- taskPanel: JPanel&lt;/div&gt;&lt;div&gt;- tablePanel: JPanel&lt;/div&gt;&lt;div&gt;- statusPanel: JPanel&lt;/div&gt;&lt;div&gt;- employeeIdField: JTextField&lt;/div&gt;&lt;div&gt;- employeeNameField: JTextField&lt;/div&gt;&lt;div&gt;- addEmployeeButton: JButton&lt;/div&gt;&lt;div&gt;- employeeIdField: JTextField&lt;/div&gt;&lt;div&gt;- taskIdField: JTextField&lt;/div&gt;&lt;div&gt;- statusComboBox: JComboBox&amp;lt;String&amp;gt;&lt;/div&gt;&lt;div&gt;- subTaskCheckBox: JCheckBox&lt;/div&gt;&lt;div&gt;- startHourField: JTextField&lt;/div&gt;&lt;div&gt;- endHourField: JTextField&lt;/div&gt;&lt;div&gt;- taskTypeComboBox: JComboBox&amp;lt;String&amp;gt;&lt;/div&gt;&lt;div&gt;- addTaskButton: JButton&lt;/div&gt;&lt;div&gt;- modifyTaskButton:&amp;nbsp;&lt;span style=&quot;background-color: transparent; color: light-dark(rgb(0, 0, 0), rgb(255, 255, 255));&quot;&gt;JButton&lt;/span&gt;&lt;/div&gt;&lt;div&gt;&lt;span style=&quot;background-color: transparent; color: light-dark(rgb(0, 0, 0), rgb(255, 255, 255));&quot;&gt;- workDurationButton:&amp;nbsp;&lt;/span&gt;&lt;span style=&quot;background-color: transparent; color: light-dark(rgb(0, 0, 0), rgb(255, 255, 255));&quot;&gt;JButton&lt;/span&gt;&lt;/div&gt;&lt;div&gt;- taskStatsButton:&amp;nbsp;&lt;span style=&quot;background-color: transparent; color: light-dark(rgb(0, 0, 0), rgb(255, 255, 255));&quot;&gt;JButton&lt;/span&gt;&lt;/div&gt;&lt;div&gt;&lt;span style=&quot;background-color: transparent; color: light-dark(rgb(0, 0, 0), rgb(255, 255, 255));&quot;&gt;-&amp;nbsp;&lt;/span&gt;&lt;span style=&quot;background-color: transparent;&quot;&gt;emplyeeWithMoreThen40HoursButton: JButton&lt;/span&gt;&lt;/div&gt;&lt;div&gt;&lt;span style=&quot;background-color: transparent;&quot;&gt;- removeTaskButton: JButton&lt;/span&gt;&lt;/div&gt;&lt;div&gt;&lt;span style=&quot;background-color: transparent;&quot;&gt;- employeeIdFieldAction: JTextField&lt;/span&gt;&lt;/div&gt;&lt;div&gt;&lt;span style=&quot;background-color: transparent;&quot;&gt;- taskIdFieldAction: JTextField&lt;/span&gt;&lt;/div&gt;&lt;div&gt;&lt;span style=&quot;background-color: transparent;&quot;&gt;- statsListModel: DefaultListModel&amp;lt;String&amp;gt;&lt;/span&gt;&lt;/div&gt;&lt;div&gt;&lt;span style=&quot;background-color: transparent;&quot;&gt;- statsList: JList&amp;lt;String&lt;/span&gt;&lt;span style=&quot;background-color: transparent; color: light-dark(rgb(0, 0, 0), rgb(255, 255, 255));&quot;&gt;&amp;gt;&lt;/span&gt;&lt;/div&gt;&lt;div&gt;&lt;span style=&quot;background-color: transparent; color: light-dark(rgb(0, 0, 0), rgb(255, 255, 255));&quot;&gt;- taskTable: JTable&lt;/span&gt;&lt;/div&gt;&lt;div&gt;&lt;span style=&quot;background-color: transparent; color: light-dark(rgb(0, 0, 0), rgb(255, 255, 255));&quot;&gt;- tableModel: DefaultTableModel&lt;/span&gt;&lt;/div&gt;&lt;div&gt;&lt;span style=&quot;background-color: transparent; color: light-dark(rgb(0, 0, 0), rgb(255, 255, 255));&quot;&gt;- statusLabel: JLabel&lt;/span&gt;&lt;/div&gt;&lt;div&gt;&lt;span style=&quot;background-color: transparent; color: light-dark(rgb(0, 0, 0), rgb(255, 255, 255));&quot;&gt;- tasksManagement: TasksManagement&lt;/span&gt;&lt;/div&gt;&lt;div&gt;&lt;span style=&quot;background-color: transparent; color: light-dark(rgb(0, 0, 0), rgb(255, 255, 255));&quot;&gt;- utility: Utility&lt;/span&gt;&lt;/div&gt;" style="text;strokeColor=none;fillColor=none;align=left;verticalAlign=top;spacingLeft=4;spacingRight=4;overflow=hidden;rotatable=0;points=[[0,0.5],[1,0.5]];portConstraint=eastwest;whiteSpace=wrap;html=1;" parent="0jqMITCuuIhLgwIsnsDD-7" vertex="1">
          <mxGeometry y="26" width="570" height="444" as="geometry" />
        </mxCell>
        <mxCell id="0jqMITCuuIhLgwIsnsDD-9" value="" style="line;strokeWidth=1;fillColor=none;align=left;verticalAlign=middle;spacingTop=-1;spacingLeft=3;spacingRight=3;rotatable=0;labelPosition=right;points=[];portConstraint=eastwest;strokeColor=inherit;" parent="0jqMITCuuIhLgwIsnsDD-7" vertex="1">
          <mxGeometry y="470" width="570" height="8" as="geometry" />
        </mxCell>
        <mxCell id="0jqMITCuuIhLgwIsnsDD-10" value="+ setupInputPanel(): void&lt;div&gt;+ setupTaskPanel(): void&lt;/div&gt;&lt;div&gt;+ setupTablePanel(): void&lt;/div&gt;&lt;div&gt;+ setupStatusPanel(): void&lt;/div&gt;&lt;div&gt;+&amp;nbsp;createAssignTaskPanel(): JPanel&lt;/div&gt;&lt;div&gt;+ createTaskActionsPanel(): JPanel&lt;/div&gt;&lt;div&gt;+ createTaskStatsPanel(): JPanel&lt;/div&gt;&lt;div&gt;+ actionPerformd(ActioneEvent e): void&lt;/div&gt;&lt;div&gt;+ handleAddEmployee(): void&lt;/div&gt;&lt;div&gt;+ handleAddTask(): void&lt;/div&gt;&lt;div&gt;+ assignSubTask(empId: int, newTask: Task): void&lt;/div&gt;&lt;div&gt;+ addSubTaskRecursively(parentTask: ComplexTask, targetComplexTaskId: id, newTask: Task): boolean&lt;/div&gt;&lt;div&gt;+ handleModifyTask(): void&lt;/div&gt;&lt;div&gt;+ handleWorkDuration(): void&lt;/div&gt;&lt;div&gt;+ handleRemoveTask(): void&lt;/div&gt;&lt;div&gt;+ handleTaskStatistics(): void&lt;/div&gt;&lt;div&gt;+ handleEmployeeWithMoreThen40Hours(): void&lt;/div&gt;&lt;div&gt;+ saveAndUpdate(String message): void&lt;/div&gt;&lt;div&gt;+ updateTable(): void&lt;/div&gt;&lt;div&gt;+ displaySubTasks(parentTask: ComplexTask, prefix: String): void&lt;/div&gt;&lt;div&gt;+ updateStatus(message: String): void&lt;/div&gt;&lt;div&gt;&lt;br&gt;&lt;/div&gt;" style="text;strokeColor=none;fillColor=none;align=left;verticalAlign=top;spacingLeft=4;spacingRight=4;overflow=hidden;rotatable=0;points=[[0,0.5],[1,0.5]];portConstraint=eastwest;whiteSpace=wrap;html=1;" parent="0jqMITCuuIhLgwIsnsDD-7" vertex="1">
          <mxGeometry y="478" width="570" height="322" as="geometry" />
        </mxCell>
        <mxCell id="FAMhcfJLfjF-yUQsPzLO-2" value="&lt;p style=&quot;margin:0px;margin-top:4px;text-align:center;&quot;&gt;SerializationOperations&lt;/p&gt;&lt;hr size=&quot;1&quot; style=&quot;border-style:solid;&quot;&gt;&lt;p style=&quot;margin:0px;margin-left:4px;&quot;&gt;- FILE_NAME: static final String&lt;/p&gt;&lt;hr size=&quot;1&quot; style=&quot;border-style:solid;&quot;&gt;&lt;p style=&quot;margin:0px;margin-left:4px;&quot;&gt;+ saveTasksManagement(tasksManagement: TasksManagement): static void&lt;/p&gt;&lt;p style=&quot;margin:0px;margin-left:4px;&quot;&gt;+ load TasksManagement(): static TasksManagement&amp;nbsp;&lt;/p&gt;" style="verticalAlign=top;align=left;overflow=fill;html=1;whiteSpace=wrap;" parent="1" vertex="1">
          <mxGeometry x="990" y="870" width="460" height="90" as="geometry" />
        </mxCell>
        <mxCell id="FAMhcfJLfjF-yUQsPzLO-3" value="Use" style="endArrow=open;endSize=12;dashed=1;html=1;rounded=0;exitX=0.5;exitY=0;exitDx=0;exitDy=0;entryX=0.373;entryY=1.033;entryDx=0;entryDy=0;entryPerimeter=0;" parent="1" source="0jqMITCuuIhLgwIsnsDD-7" target="KFKSji-0zao5er019L_L-8" edge="1">
          <mxGeometry width="160" relative="1" as="geometry">
            <mxPoint x="950" y="700" as="sourcePoint" />
            <mxPoint x="1110" y="700" as="targetPoint" />
            <Array as="points">
              <mxPoint x="565" y="520" />
              <mxPoint x="850" y="520" />
            </Array>
          </mxGeometry>
        </mxCell>
        <mxCell id="FAMhcfJLfjF-yUQsPzLO-4" value="Use" style="endArrow=open;endSize=12;dashed=1;html=1;rounded=0;exitX=0.5;exitY=0;exitDx=0;exitDy=0;entryX=0.719;entryY=0.952;entryDx=0;entryDy=0;entryPerimeter=0;" parent="1" source="FAMhcfJLfjF-yUQsPzLO-2" target="KFKSji-0zao5er019L_L-8" edge="1">
          <mxGeometry width="160" relative="1" as="geometry">
            <mxPoint x="580" y="480" as="sourcePoint" />
            <mxPoint x="740" y="480" as="targetPoint" />
            <Array as="points">
              <mxPoint x="1220" y="840" />
              <mxPoint x="1000" y="840" />
            </Array>
          </mxGeometry>
        </mxCell>
        <mxCell id="FAMhcfJLfjF-yUQsPzLO-5" value="Use" style="endArrow=open;endSize=12;dashed=1;html=1;rounded=0;exitX=1;exitY=0.5;exitDx=0;exitDy=0;entryX=0;entryY=0.5;entryDx=0;entryDy=0;" parent="1" source="0jqMITCuuIhLgwIsnsDD-5" target="KFKSji-0zao5er019L_L-8" edge="1">
          <mxGeometry width="160" relative="1" as="geometry">
            <mxPoint x="580" y="480" as="sourcePoint" />
            <mxPoint x="740" y="480" as="targetPoint" />
          </mxGeometry>
        </mxCell>
        <mxCell id="faw2qfr-c8wTREbNHubx-1" value="Use" style="endArrow=open;endSize=12;dashed=1;html=1;rounded=0;fontSize=12;curved=1;exitX=0.25;exitY=0;exitDx=0;exitDy=0;" parent="1" source="0jqMITCuuIhLgwIsnsDD-7" edge="1">
          <mxGeometry width="160" relative="1" as="geometry">
            <mxPoint x="880" y="640" as="sourcePoint" />
            <mxPoint x="423" y="467" as="targetPoint" />
          </mxGeometry>
        </mxCell>
        <mxCell id="vEsGTmem6s9MyRus5CCd-1" value="Use" style="endArrow=open;endSize=12;dashed=1;html=1;rounded=0;entryX=0;entryY=0.5;entryDx=0;entryDy=0;" edge="1" parent="1" target="FAMhcfJLfjF-yUQsPzLO-2">
          <mxGeometry width="160" relative="1" as="geometry">
            <mxPoint x="853" y="915" as="sourcePoint" />
            <mxPoint x="670" y="580" as="targetPoint" />
          </mxGeometry>
        </mxCell>
      </root>
    </mxGraphModel>
  </diagram>
  <diagram id="itryiO83rAxZfQPal5-d" name=" Package Diagram ">
    <mxGraphModel dx="1217" dy="599" grid="1" gridSize="10" guides="1" tooltips="1" connect="1" arrows="1" fold="1" page="1" pageScale="1" pageWidth="850" pageHeight="1100" math="0" shadow="0">
      <root>
        <mxCell id="0" />
        <mxCell id="1" parent="0" />
        <mxCell id="Acf2CYhPTtDmzmgNQthu-4" value="Data Model&lt;div&gt;&lt;span style=&quot;font-weight: normal;&quot;&gt;- Employee&lt;/span&gt;&lt;/div&gt;&lt;div&gt;&lt;span style=&quot;font-weight: normal;&quot;&gt;- Task&lt;/span&gt;&lt;/div&gt;&lt;div&gt;&lt;span style=&quot;font-weight: normal;&quot;&gt;- SimpleTask&lt;/span&gt;&lt;/div&gt;&lt;div&gt;&lt;span style=&quot;font-weight: normal;&quot;&gt;- ComplexTask&lt;/span&gt;&amp;nbsp;&lt;/div&gt;" style="shape=folder;fontStyle=1;spacingTop=10;tabWidth=40;tabHeight=14;tabPosition=left;html=1;whiteSpace=wrap;" parent="1" vertex="1">
          <mxGeometry x="590" y="310" width="210" height="130" as="geometry" />
        </mxCell>
        <mxCell id="0bWxhf9nG0LX3THx_6se-1" value="Data Model&lt;div&gt;&lt;span style=&quot;font-weight: normal;&quot;&gt;- Employee&lt;/span&gt;&lt;/div&gt;&lt;div&gt;&lt;span style=&quot;font-weight: normal;&quot;&gt;- Task&lt;/span&gt;&lt;/div&gt;&lt;div&gt;&lt;span style=&quot;font-weight: normal;&quot;&gt;- SimpleTask&lt;/span&gt;&lt;/div&gt;&lt;div&gt;&lt;span style=&quot;font-weight: normal;&quot;&gt;- ComplexTask&lt;/span&gt;&amp;nbsp;&lt;/div&gt;" style="shape=folder;fontStyle=1;spacingTop=10;tabWidth=40;tabHeight=14;tabPosition=left;html=1;whiteSpace=wrap;" parent="1" vertex="1">
          <mxGeometry x="590" y="310" width="210" height="130" as="geometry" />
        </mxCell>
        <mxCell id="0bWxhf9nG0LX3THx_6se-2" value="Graphical User Interface&lt;div&gt;&lt;span style=&quot;font-weight: normal;&quot;&gt;- GUI&lt;/span&gt;&lt;/div&gt;" style="shape=folder;fontStyle=1;spacingTop=10;tabWidth=40;tabHeight=14;tabPosition=left;html=1;whiteSpace=wrap;" parent="1" vertex="1">
          <mxGeometry x="80" y="140" width="210" height="130" as="geometry" />
        </mxCell>
        <mxCell id="0bWxhf9nG0LX3THx_6se-3" value="Business Logic&lt;br&gt;&lt;div&gt;&lt;span style=&quot;font-weight: normal;&quot;&gt;- TasksManagement&lt;/span&gt;&lt;/div&gt;&lt;div&gt;&lt;span style=&quot;font-weight: normal;&quot;&gt;-Utility&lt;/span&gt;&lt;/div&gt;" style="shape=folder;fontStyle=1;spacingTop=10;tabWidth=40;tabHeight=14;tabPosition=left;html=1;whiteSpace=wrap;" parent="1" vertex="1">
          <mxGeometry x="80" y="310" width="210" height="130" as="geometry" />
        </mxCell>
        <mxCell id="0bWxhf9nG0LX3THx_6se-4" value="Data&amp;nbsp;&lt;span style=&quot;background-color: transparent; color: light-dark(rgb(0, 0, 0), rgb(255, 255, 255));&quot;&gt;Access&lt;/span&gt;&lt;div&gt;&lt;div&gt;&lt;span style=&quot;font-weight: normal;&quot;&gt;- SerialzationOperations&lt;/span&gt;&lt;span style=&quot;background-color: transparent; color: light-dark(rgb(0, 0, 0), rgb(255, 255, 255));&quot;&gt;&amp;nbsp;&lt;/span&gt;&lt;/div&gt;&lt;/div&gt;" style="shape=folder;fontStyle=1;spacingTop=10;tabWidth=40;tabHeight=14;tabPosition=left;html=1;whiteSpace=wrap;" parent="1" vertex="1">
          <mxGeometry x="80" y="480" width="210" height="130" as="geometry" />
        </mxCell>
        <mxCell id="0bWxhf9nG0LX3THx_6se-9" value="" style="endArrow=open;endSize=12;dashed=1;html=1;rounded=0;exitX=0;exitY=0;exitDx=210;exitDy=72;exitPerimeter=0;entryX=0;entryY=0;entryDx=125;entryDy=14;entryPerimeter=0;" parent="1" source="0bWxhf9nG0LX3THx_6se-2" target="0bWxhf9nG0LX3THx_6se-1" edge="1">
          <mxGeometry width="160" relative="1" as="geometry">
            <mxPoint x="480" y="430" as="sourcePoint" />
            <mxPoint x="640" y="430" as="targetPoint" />
          </mxGeometry>
        </mxCell>
        <mxCell id="0bWxhf9nG0LX3THx_6se-10" value="" style="endArrow=open;endSize=12;dashed=1;html=1;rounded=0;exitX=0;exitY=0;exitDx=210;exitDy=72;exitPerimeter=0;entryX=0;entryY=0;entryDx=0;entryDy=72;entryPerimeter=0;" parent="1" source="0bWxhf9nG0LX3THx_6se-3" target="0bWxhf9nG0LX3THx_6se-1" edge="1">
          <mxGeometry width="160" relative="1" as="geometry">
            <mxPoint x="490" y="440" as="sourcePoint" />
            <mxPoint x="650" y="440" as="targetPoint" />
          </mxGeometry>
        </mxCell>
        <mxCell id="0bWxhf9nG0LX3THx_6se-11" value="" style="endArrow=open;endSize=12;dashed=1;html=1;rounded=0;exitX=0;exitY=0;exitDx=210;exitDy=72;exitPerimeter=0;entryX=0.5;entryY=1;entryDx=0;entryDy=0;entryPerimeter=0;" parent="1" source="0bWxhf9nG0LX3THx_6se-4" target="0bWxhf9nG0LX3THx_6se-1" edge="1">
          <mxGeometry width="160" relative="1" as="geometry">
            <mxPoint x="500" y="450" as="sourcePoint" />
            <mxPoint x="660" y="450" as="targetPoint" />
          </mxGeometry>
        </mxCell>
        <mxCell id="0bWxhf9nG0LX3THx_6se-12" value="" style="endArrow=open;endSize=12;dashed=1;html=1;rounded=0;exitX=0.5;exitY=1;exitDx=0;exitDy=0;exitPerimeter=0;entryX=0.499;entryY=0.141;entryDx=0;entryDy=0;entryPerimeter=0;" parent="1" source="0bWxhf9nG0LX3THx_6se-2" target="0bWxhf9nG0LX3THx_6se-3" edge="1">
          <mxGeometry width="160" relative="1" as="geometry">
            <mxPoint x="510" y="460" as="sourcePoint" />
            <mxPoint x="670" y="460" as="targetPoint" />
          </mxGeometry>
        </mxCell>
        <mxCell id="0bWxhf9nG0LX3THx_6se-13" value="" style="endArrow=open;endSize=12;dashed=1;html=1;rounded=0;exitX=0.5;exitY=1;exitDx=0;exitDy=0;exitPerimeter=0;entryX=0.499;entryY=0.112;entryDx=0;entryDy=0;entryPerimeter=0;" parent="1" source="0bWxhf9nG0LX3THx_6se-3" target="0bWxhf9nG0LX3THx_6se-4" edge="1">
          <mxGeometry width="160" relative="1" as="geometry">
            <mxPoint x="520" y="470" as="sourcePoint" />
            <mxPoint x="680" y="470" as="targetPoint" />
          </mxGeometry>
        </mxCell>
      </root>
    </mxGraphModel>
  </diagram>
  <diagram id="OVbkkeU4RUmQgnPQlcak" name="Case Diagram">
    <mxGraphModel dx="1217" dy="599" grid="1" gridSize="10" guides="1" tooltips="1" connect="1" arrows="1" fold="1" page="1" pageScale="1" pageWidth="850" pageHeight="1100" math="0" shadow="0">
      <root>
        <mxCell id="0" />
        <mxCell id="1" parent="0" />
        <mxCell id="BUDKRm2A-a1KJ420svT0-1" value="Project Manager&lt;div&gt;&lt;br&gt;&lt;/div&gt;" style="shape=umlActor;verticalLabelPosition=bottom;verticalAlign=top;html=1;" parent="1" vertex="1">
          <mxGeometry x="70" y="440" width="30" height="60" as="geometry" />
        </mxCell>
        <mxCell id="BUDKRm2A-a1KJ420svT0-2" value="Add Employee" style="ellipse;whiteSpace=wrap;html=1;" parent="1" vertex="1">
          <mxGeometry x="250" y="150" width="140" height="70" as="geometry" />
        </mxCell>
        <mxCell id="BUDKRm2A-a1KJ420svT0-3" value="Assign Task" style="ellipse;whiteSpace=wrap;html=1;" parent="1" vertex="1">
          <mxGeometry x="250" y="230" width="140" height="70" as="geometry" />
        </mxCell>
        <mxCell id="BUDKRm2A-a1KJ420svT0-4" value="Modify Task" style="ellipse;whiteSpace=wrap;html=1;" parent="1" vertex="1">
          <mxGeometry x="250" y="310" width="140" height="70" as="geometry" />
        </mxCell>
        <mxCell id="BUDKRm2A-a1KJ420svT0-5" value="Work Duration" style="ellipse;whiteSpace=wrap;html=1;" parent="1" vertex="1">
          <mxGeometry x="250" y="390" width="140" height="70" as="geometry" />
        </mxCell>
        <mxCell id="BUDKRm2A-a1KJ420svT0-6" value="Remove Task" style="ellipse;whiteSpace=wrap;html=1;" parent="1" vertex="1">
          <mxGeometry x="250" y="470" width="140" height="70" as="geometry" />
        </mxCell>
        <mxCell id="BUDKRm2A-a1KJ420svT0-7" value="Task Stats" style="ellipse;whiteSpace=wrap;html=1;" parent="1" vertex="1">
          <mxGeometry x="250" y="550" width="140" height="70" as="geometry" />
        </mxCell>
        <mxCell id="BUDKRm2A-a1KJ420svT0-8" value="More Then 40 Hours" style="ellipse;whiteSpace=wrap;html=1;" parent="1" vertex="1">
          <mxGeometry x="250" y="630" width="140" height="70" as="geometry" />
        </mxCell>
        <mxCell id="gLYF957p4YFvDxoeHL-8-4" value="" style="endArrow=none;html=1;rounded=0;exitX=1;exitY=0.3333333333333333;exitDx=0;exitDy=0;exitPerimeter=0;entryX=0;entryY=0.5;entryDx=0;entryDy=0;" parent="1" source="BUDKRm2A-a1KJ420svT0-1" target="BUDKRm2A-a1KJ420svT0-2" edge="1">
          <mxGeometry width="50" height="50" relative="1" as="geometry">
            <mxPoint x="690" y="370" as="sourcePoint" />
            <mxPoint x="740" y="320" as="targetPoint" />
          </mxGeometry>
        </mxCell>
        <mxCell id="gLYF957p4YFvDxoeHL-8-5" value="" style="endArrow=none;html=1;rounded=0;entryX=0;entryY=0.5;entryDx=0;entryDy=0;" parent="1" target="BUDKRm2A-a1KJ420svT0-3" edge="1">
          <mxGeometry width="50" height="50" relative="1" as="geometry">
            <mxPoint x="100" y="460" as="sourcePoint" />
            <mxPoint x="260" y="195" as="targetPoint" />
          </mxGeometry>
        </mxCell>
        <mxCell id="gLYF957p4YFvDxoeHL-8-6" value="" style="endArrow=none;html=1;rounded=0;entryX=0;entryY=0.5;entryDx=0;entryDy=0;" parent="1" target="BUDKRm2A-a1KJ420svT0-4" edge="1">
          <mxGeometry width="50" height="50" relative="1" as="geometry">
            <mxPoint x="100" y="460" as="sourcePoint" />
            <mxPoint x="270" y="205" as="targetPoint" />
          </mxGeometry>
        </mxCell>
        <mxCell id="gLYF957p4YFvDxoeHL-8-7" value="" style="endArrow=none;html=1;rounded=0;exitX=1;exitY=0.3333333333333333;exitDx=0;exitDy=0;exitPerimeter=0;entryX=0;entryY=0.5;entryDx=0;entryDy=0;" parent="1" source="BUDKRm2A-a1KJ420svT0-1" target="BUDKRm2A-a1KJ420svT0-5" edge="1">
          <mxGeometry width="50" height="50" relative="1" as="geometry">
            <mxPoint x="130" y="490" as="sourcePoint" />
            <mxPoint x="280" y="215" as="targetPoint" />
          </mxGeometry>
        </mxCell>
        <mxCell id="gLYF957p4YFvDxoeHL-8-8" value="" style="endArrow=none;html=1;rounded=0;entryX=0;entryY=0.5;entryDx=0;entryDy=0;" parent="1" target="BUDKRm2A-a1KJ420svT0-6" edge="1">
          <mxGeometry width="50" height="50" relative="1" as="geometry">
            <mxPoint x="100" y="460" as="sourcePoint" />
            <mxPoint x="290" y="225" as="targetPoint" />
          </mxGeometry>
        </mxCell>
        <mxCell id="gLYF957p4YFvDxoeHL-8-9" value="" style="endArrow=none;html=1;rounded=0;entryX=0;entryY=0.5;entryDx=0;entryDy=0;" parent="1" target="BUDKRm2A-a1KJ420svT0-8" edge="1">
          <mxGeometry width="50" height="50" relative="1" as="geometry">
            <mxPoint x="100" y="460" as="sourcePoint" />
            <mxPoint x="300" y="235" as="targetPoint" />
          </mxGeometry>
        </mxCell>
        <mxCell id="gLYF957p4YFvDxoeHL-8-10" value="" style="endArrow=none;html=1;rounded=0;entryX=0;entryY=0.5;entryDx=0;entryDy=0;" parent="1" target="BUDKRm2A-a1KJ420svT0-7" edge="1">
          <mxGeometry width="50" height="50" relative="1" as="geometry">
            <mxPoint x="100" y="460" as="sourcePoint" />
            <mxPoint x="310" y="245" as="targetPoint" />
          </mxGeometry>
        </mxCell>
      </root>
    </mxGraphModel>
  </diagram>
</mxfile>
